<svg xmlns="http://www.w3.org/2000/svg" viewBox="0 0 600 420"><defs><linearGradient id="g" x1="0" x2="1"><stop stop-color="#eaf8ff"/><stop offset="1" stop-color="#fff"/></linearGradient><linearGradient id="c" x1="0" x2="1"><stop stop-color="#39c6ff"/><stop offset="1" stop-color="#087ed1"/></linearGradient></defs><rect width="600" height="420" rx="34" fill="url(#g)"/><ellipse cx="300" cy="330" rx="185" ry="26" fill="#dbeeff"/><rect x="105" y="85" width="390" height="155" rx="30" fill="#fff" stroke="#b8cce3" stroke-width="8"/><path d="M105 145h390" stroke="#d7e5f3" stroke-width="7"/><rect x="400" y="113" width="60" height="25" rx="8" fill="#092d60"/><text x="430" y="131" text-anchor="middle" font-family="Arial" font-size="15" fill="#8de5ff">24°C</text><path d="M130 180h340" stroke="#173c70" stroke-width="8"/><path d="M150 206h300" stroke="#173c70" stroke-width="5"/><g fill="url(#c)" opacity=".8"><path d="M205 238l-18 105h26l18-105z"/><path d="M285 238l-8 115h26l8-115z"/><path d="M365 238l8 115h26l-8-115z"/></g><circle cx="155" cy="95" r="15" fill="#087ed1"/><path d="M155 55v-28M155 69l-20-18M155 69l20-18M115 95h-28M129 95l-20-18M129 95l-20 18" stroke="#087ed1" stroke-width="8" stroke-linecap="round"/></svg>
